# xmcd
# 
# Track frame offsets:
#     150
#     15540
#     40889
#     56090
#     80419
#     102254
#     121273
#     131923
#     155969
#     175664
#     192593
# 
# Disc length: 2872
# 
# Revision: 0
# Processed by: cddbd v1.5.2PL0 Copyright (c) Steve Scherf et al.
# Submitted via: fre:ac v1.0.17
# 
DISCID=960b360b
DTITLE=Marcelo Naves and Danilo Simi - Blues Alive
DYEAR=0
DGENRE=Blues
TTITLE0=Ramblin' on my mind
TTITLE1=Blues with a feeling
TTITLE2=Come on in my kitchen
TTITLE3=Robert's influence
TTITLE4=Fellas' boogie
TTITLE5=Me and the devil
TTITLE6=Saint Louis blues
TTITLE7=It's not easy
TTITLE8=Woke up this morning
TTITLE9=Love in vain
TTITLE10=Two girl jazz
EXTD=
EXTT0=
EXTT1=
EXTT2=
EXTT3=
EXTT4=
EXTT5=
EXTT6=
EXTT7=
EXTT8=
EXTT9=
EXTT10=
PLAYORDER=
